<?xml version="1.0" standalone="no"?>
<!DOCTYPE svg PUBLIC "-//W3C//DTD SVG 20010904//EN"
 "http://www.w3.org/TR/2001/REC-SVG-20010904/DTD/svg10.dtd">
<svg version="1.0" xmlns="http://www.w3.org/2000/svg"
 width="400.000000pt" height="257.000000pt" viewBox="0 0 400.000000 257.000000"
 preserveAspectRatio="xMidYMid meet">

<g transform="translate(0.000000,257.000000) scale(0.100000,-0.100000)"
fill="#000000" stroke="none">
<path d="M2715 1659 c-23 -15 -41 -19 -75 -15 -164 20 -157 20 -184 -7 -28
-28 -36 -70 -12 -61 8 3 40 0 72 -6 49 -10 62 -10 94 5 36 16 38 16 91 -10 92
-47 179 -30 179 36 0 65 -100 101 -165 58z"/>
<path d="M1466 1541 l-28 -29 23 -52 c20 -47 23 -50 31 -30 4 12 6 26 3 30 -9
14 15 22 30 10 10 -8 15 -8 22 3 4 9 19 17 33 19 34 4 39 41 8 62 -37 26 -90
21 -122 -13z"/>
<path d="M2385 1560 c-46 -7 -65 -16 -65 -33 0 -17 61 -52 83 -49 14 3 17 -1
12 -21 -9 -34 8 -41 39 -16 27 22 34 56 16 89 -15 28 -40 37 -85 30z"/>
<path d="M1503 1313 c3 -27 24 -127 46 -223 40 -174 60 -299 62 -395 1 -34 4
-19 10 45 5 52 5 125 1 161 -7 53 -5 68 6 76 12 7 7 31 -31 143 -25 74 -49
159 -52 188 -6 44 -10 52 -27 52 -19 0 -20 -4 -15 -47z"/>
<path d="M2301 1134 c0 -11 3 -14 6 -6 3 7 2 16 -1 19 -3 4 -6 -2 -5 -13z"/>
<path d="M1525 980 c3 -5 8 -10 11 -10 2 0 4 5 4 10 0 6 -5 10 -11 10 -5 0 -7
-4 -4 -10z"/>
<path d="M2213 618 c-46 -194 -80 -355 -75 -359 4 -4 52 -10 107 -14 l101 -6
23 144 c13 79 26 149 30 156 5 7 15 0 30 -20 13 -17 64 -79 114 -136 l90 -106
63 69 c35 38 66 77 70 88 4 14 -10 35 -58 85 -35 36 -87 91 -114 121 l-51 56
-7 92 -8 92 -47 0 c-73 0 -108 16 -123 56 -9 27 -18 34 -38 34 -25 0 -26 -3
-107 -352z"/>
<path d="M1601 604 c0 -11 3 -14 6 -6 3 7 2 16 -1 19 -3 4 -6 -2 -5 -13z"/>
<path d="M1568 573 c7 -3 16 -2 19 1 4 3 -2 6 -13 5 -11 0 -14 -3 -6 -6z"/>
<path d="M1641 424 c0 -11 3 -14 6 -6 3 7 2 16 -1 19 -3 4 -6 -2 -5 -13z"/>
<path d="M1638 223 c7 -3 16 -2 19 1 4 3 -2 6 -13 5 -11 0 -14 -3 -6 -6z"/>
</g>
</svg>
