<?xml version="1.0" standalone="no"?>
<!DOCTYPE svg PUBLIC "-//W3C//DTD SVG 20010904//EN"
 "http://www.w3.org/TR/2001/REC-SVG-20010904/DTD/svg10.dtd">
<svg version="1.0" xmlns="http://www.w3.org/2000/svg"
 width="400.000000pt" height="286.000000pt" viewBox="0 0 400.000000 286.000000"
 preserveAspectRatio="xMidYMid meet">

<g transform="translate(0.000000,286.000000) scale(0.100000,-0.100000)"
fill="#000000" stroke="none">
<path d="M2634 1848 c-3 -5 -12 -7 -20 -4 -8 3 -14 -1 -14 -8 0 -7 -7 -19 -15
-26 -19 -16 -19 -25 1 -44 12 -12 20 -14 36 -5 16 8 22 7 34 -8 7 -10 14 -22
14 -26 0 -5 10 -5 21 -2 19 6 21 4 16 -16 -6 -23 7 -49 24 -49 5 0 9 7 9 15 0
8 8 19 19 24 23 13 37 61 20 72 -6 4 -9 14 -6 22 6 16 -19 44 -30 34 -3 -4
-12 1 -18 10 -14 19 -82 26 -91 11z"/>
<path d="M1319 1732 c-9 -26 -19 -55 -23 -64 -6 -13 -2 -19 18 -24 13 -3 30
-3 35 1 19 11 12 135 -8 135 -3 0 -13 -22 -22 -48z"/>
<path d="M2654 1613 c-15 -3 -25 -17 -34 -46 -32 -110 -78 -145 -202 -157 -72
-6 -88 -5 -116 11 -32 18 -32 18 -23 0 6 -10 7 -22 3 -25 -4 -4 5 -5 19 -1 40
10 50 -11 39 -80 -5 -32 -8 -60 -6 -62 12 -13 129 -2 176 16 30 12 55 21 55
21 0 0 0 -17 -1 -37 -1 -21 -8 -74 -17 -118 -25 -121 -36 -253 -38 -430 l-1
-160 41 -3 c27 -2 43 1 45 10 3 7 21 84 41 171 21 87 41 155 45 150 4 -4 21
-48 38 -98 17 -49 44 -121 60 -160 l28 -70 49 -3 c41 -3 47 -1 41 14 -12 30
-55 257 -66 344 -5 46 -10 115 -10 152 l0 68 59 0 c56 0 59 -1 67 -27 8 -32 8
-31 -1 -61 -6 -21 -5 -22 12 -11 15 9 26 8 51 -5 20 -10 32 -12 32 -6 0 6 6 8
13 5 6 -4 -5 9 -26 27 -33 30 -40 45 -67 145 -44 169 -107 294 -198 395 -34
38 -50 42 -108 31z"/>
<path d="M1802 1547 c-26 -28 -27 -45 -5 -92 21 -43 33 -45 33 -4 0 28 2 31
24 25 13 -3 26 -2 28 4 2 5 14 11 28 13 34 5 38 40 8 61 -34 24 -90 21 -116
-7z"/>
<path d="M1668 1435 c-16 -13 -36 -28 -45 -34 -12 -7 -15 -13 -8 -20 17 -17
81 10 77 32 -2 10 2 24 8 32 20 24 -2 17 -32 -10z"/>
<path d="M1328 1198 l-3 -33 -90 -5 -90 -5 -6 -98 c-6 -110 13 -79 -152 -254
-42 -46 -77 -88 -77 -95 0 -7 -9 -19 -20 -26 -22 -14 -27 -38 -7 -45 6 -2 23
3 36 12 26 17 19 22 93 -67 l27 -32 45 48 c25 26 75 84 111 128 36 43 70 80
74 82 4 1 16 -44 25 -100 10 -57 23 -125 28 -152 l10 -48 79 6 c68 6 79 5 79
-8 0 -9 8 -16 19 -16 35 0 31 49 -29 300 -32 135 -68 289 -80 343 -20 89 -24
97 -45 97 -19 0 -24 -6 -27 -32z"/>
<path d="M885 1110 c-16 -11 -34 -22 -40 -24 -6 -2 -6 -8 2 -16 9 -10 19 -10
44 -1 26 9 35 8 49 -4 16 -14 17 -12 15 22 -3 45 -24 52 -70 23z"/>
<path d="M2065 1060 c10 -11 20 -20 23 -20 3 0 -3 9 -13 20 -10 11 -20 20 -23
20 -3 0 3 -9 13 -20z"/>
<path d="M2241 794 c0 -11 3 -14 6 -6 3 7 2 16 -1 19 -3 4 -6 -2 -5 -13z"/>
<path d="M2252 740 c0 -14 2 -19 5 -12 2 6 2 18 0 25 -3 6 -5 1 -5 -13z"/>
<path d="M2262 675 c0 -16 2 -22 5 -12 2 9 2 23 0 30 -3 6 -5 -1 -5 -18z"/>
<path d="M2165 650 c9 -16 18 -30 21 -30 2 0 -2 14 -11 30 -9 17 -18 30 -21
30 -2 0 2 -13 11 -30z"/>
<path d="M2272 605 c0 -16 2 -22 5 -12 2 9 2 23 0 30 -3 6 -5 -1 -5 -18z"/>
<path d="M2210 561 c0 -6 4 -13 10 -16 6 -3 7 1 4 9 -7 18 -14 21 -14 7z"/>
<path d="M2485 493 c-16 -9 -48 -22 -70 -28 l-40 -13 43 -11 c23 -7 71 -11
105 -9 53 3 62 6 65 23 3 28 -8 42 -43 48 -19 4 -41 0 -60 -10z"/>
<path d="M2826 501 c-4 -6 -31 -18 -61 -27 -31 -10 -55 -24 -55 -31 0 -11 21
-13 98 -11 l97 3 3 33 c3 28 0 32 -22 32 -13 0 -31 3 -39 6 -8 3 -18 1 -21 -5z"/>
</g>
</svg>
