<?xml version="1.0" standalone="no"?>
<!DOCTYPE svg PUBLIC "-//W3C//DTD SVG 20010904//EN"
 "http://www.w3.org/TR/2001/REC-SVG-20010904/DTD/svg10.dtd">
<svg version="1.0" xmlns="http://www.w3.org/2000/svg"
 width="400.000000pt" height="298.000000pt" viewBox="0 0 400.000000 298.000000"
 preserveAspectRatio="xMidYMid meet">

<g transform="translate(0.000000,298.000000) scale(0.100000,-0.100000)"
fill="#000000" stroke="none">
<path d="M3032 2088 l-62 -30 -65 16 c-124 31 -188 18 -220 -44 -21 -42 -19
-46 23 -46 20 -1 67 -4 104 -9 55 -6 72 -5 92 9 35 22 48 21 117 -15 78 -39
142 -46 189 -22 68 35 64 101 -9 150 -46 31 -93 29 -169 -9z"/>
<path d="M1270 1960 c-21 -21 -28 -90 -10 -90 7 0 9 -13 5 -33 -5 -26 -2 -37
15 -52 12 -11 31 -20 43 -21 12 -1 34 -5 49 -9 54 -14 100 27 74 67 -17 27 8
47 31 25 22 -19 35 -13 57 31 13 25 22 33 37 29 27 -7 24 6 -10 42 -23 25 -37
31 -69 31 -23 0 -45 -6 -52 -15 -16 -19 -39 -19 -64 0 -28 21 -82 19 -106 -5z"/>
<path d="M2587 1960 c-30 -9 -57 -28 -57 -39 0 -4 19 -21 41 -38 33 -26 46
-30 60 -22 25 13 35 -10 19 -40 -9 -17 -8 -22 5 -27 43 -17 90 47 78 107 -11
57 -71 81 -146 59z"/>
<path d="M2655 1715 c-96 -28 -95 -28 -95 -54 0 -74 -92 -189 -167 -210 -66
-19 -205 -14 -258 9 -62 26 -73 25 -45 -5 20 -21 21 -27 9 -41 -12 -14 -9 -15
32 -10 68 10 73 2 59 -89 -10 -64 -9 -79 2 -86 32 -21 170 -3 242 32 51 24 50
24 43 -11 -5 -22 -3 -30 8 -30 8 0 15 -4 15 -10 0 -10 -31 -142 -144 -620 -36
-151 -66 -283 -66 -292 0 -10 8 -18 18 -18 9 0 49 -4 87 -8 39 -3 92 -7 120
-7 l50 0 35 198 c19 108 37 197 40 197 3 -1 24 -27 48 -58 23 -31 89 -109 145
-174 l102 -118 35 38 c50 53 134 152 142 166 4 7 -53 76 -141 173 -163 177
-161 174 -161 314 l0 59 75 0 c73 0 75 0 91 -31 15 -31 15 -63 -1 -104 -8 -20
-8 -20 14 -1 20 19 23 19 57 3 36 -18 84 -23 84 -9 0 10 -92 87 -104 87 -5 0
-11 7 -13 15 -4 13 -3 13 6 0 15 -21 14 -8 -9 94 -49 222 -145 414 -282 562
-38 41 -48 47 -73 39z m-520 -273 c-3 -3 -11 0 -18 7 -9 10 -8 11 6 5 10 -3
15 -9 12 -12z m872 -474 c-3 -7 -5 -2 -5 12 0 14 2 19 5 13 2 -7 2 -19 0 -25z"/>
<path d="M1470 1698 c0 -34 25 -159 61 -311 34 -145 48 -218 75 -394 4 -24 10
-33 25 -33 17 0 19 5 14 38 -21 152 -23 197 -9 205 22 12 17 43 -27 162 -46
125 -79 253 -79 308 0 34 -2 37 -30 37 -17 0 -30 -5 -30 -12z"/>
<path d="M1480 1320 c0 -5 4 -10 9 -10 6 0 13 5 16 10 3 6 -1 10 -9 10 -9 0
-16 -4 -16 -10z"/>
<path d="M1505 1220 c-3 -5 1 -10 9 -10 9 0 16 5 16 10 0 6 -4 10 -9 10 -6 0
-13 -4 -16 -10z"/>
<path d="M1510 1110 c0 -5 5 -10 10 -10 6 0 10 5 10 10 0 6 -4 10 -10 10 -5 0
-10 -4 -10 -10z"/>
</g>
</svg>
