<?xml version="1.0" standalone="no"?>
<!DOCTYPE svg PUBLIC "-//W3C//DTD SVG 20010904//EN"
 "http://www.w3.org/TR/2001/REC-SVG-20010904/DTD/svg10.dtd">
<svg version="1.0" xmlns="http://www.w3.org/2000/svg"
 width="400.000000pt" height="334.000000pt" viewBox="0 0 400.000000 334.000000"
 preserveAspectRatio="xMidYMid meet">

<g transform="translate(0.000000,334.000000) scale(0.100000,-0.100000)"
fill="#000000" stroke="none">
<path d="M2852 2360 c-19 -16 -22 -25 -16 -62 10 -72 12 -75 38 -44 20 25 25
27 45 17 12 -7 26 -23 31 -37 8 -21 12 -23 29 -13 10 7 26 9 35 6 20 -8 21
-43 1 -55 -18 -10 -10 -42 10 -42 7 0 15 -5 17 -11 2 -6 22 -13 45 -15 58 -5
68 12 67 104 -1 72 -2 75 -41 114 -34 34 -48 40 -104 48 -94 14 -131 12 -157
-10z"/>
<path d="M1224 2293 l19 -23 -37 -15 c-20 -9 -39 -22 -43 -30 -3 -8 -16 -15
-29 -15 -29 0 -41 -24 -24 -45 8 -10 9 -19 3 -27 -16 -21 -22 -58 -10 -58 7 0
22 -3 35 -6 18 -5 22 -2 22 16 0 17 4 20 18 15 9 -5 28 -8 41 -9 32 -1 44 40
35 114 -4 30 -7 58 -6 61 1 4 -9 15 -21 25 l-22 19 19 -22z"/>
<path d="M1040 2171 c0 -6 4 -13 10 -16 6 -3 7 1 4 9 -7 18 -14 21 -14 7z"/>
<path d="M2936 2061 c-4 -5 -8 -33 -11 -63 -6 -60 -37 -178 -67 -253 -29 -72
-49 -155 -43 -174 4 -12 -22 -40 -86 -96 -50 -44 -129 -120 -175 -168 -79 -83
-84 -91 -84 -132 0 -82 74 -228 172 -339 33 -38 34 -39 71 -27 32 11 37 16 31
34 -8 25 -63 179 -90 251 -12 30 -15 51 -9 53 6 2 55 27 110 57 l100 53 7 94
c6 91 18 151 93 479 19 85 35 174 35 198 0 38 -2 42 -24 42 -14 0 -27 -4 -30
-9z"/>
<path d="M1029 2033 c-13 -16 -12 -17 4 -4 9 7 17 15 17 17 0 8 -8 3 -21 -13z"/>
<path d="M3100 2046 c0 -2 8 -10 18 -17 15 -13 16 -12 3 4 -13 16 -21 21 -21
13z"/>
<path d="M2890 1970 c-6 -11 -8 -20 -6 -20 3 0 10 9 16 20 6 11 8 20 6 20 -3
0 -10 -9 -16 -20z"/>
<path d="M1854 1970 c-34 -14 -48 -70 -30 -115 18 -42 39 -42 46 1 8 46 25 34
30 -22 3 -28 10 -58 17 -65 10 -12 0 -13 -58 -11 -63 3 -69 2 -69 -16 0 -12
-17 -34 -39 -52 -55 -43 -145 -165 -187 -255 -20 -41 -38 -75 -40 -75 -3 0
-57 47 -121 105 l-116 105 -142 0 c-164 0 -155 6 -155 -102 l0 -58 -55 0 c-51
0 -56 -2 -66 -27 -23 -58 -92 -254 -141 -398 -27 -82 -66 -188 -85 -235 -21
-51 -31 -86 -24 -88 7 -2 6 -13 -4 -32 -19 -37 -19 -40 5 -40 11 0 29 14 42
30 15 20 28 28 39 25 14 -5 39 26 117 142 114 171 218 340 286 466 l48 89 21
-20 c27 -25 184 -118 255 -151 29 -14 52 -30 52 -37 0 -7 -9 -34 -21 -61 -33
-75 -80 -215 -83 -248 -2 -16 -5 -36 -7 -44 -2 -8 4 -17 14 -19 24 -5 115 89
175 182 65 100 91 169 92 239 0 31 5 57 10 57 6 0 10 -12 10 -26 0 -15 5 -44
12 -66 16 -53 101 -110 190 -128 l63 -13 -37 -15 c-38 -15 -42 -25 -30 -70 6
-21 14 -23 82 -27 73 -3 243 9 272 20 10 4 33 -31 84 -132 l70 -138 42 6 c23
3 45 8 48 12 14 14 -48 376 -77 450 -13 30 -39 37 -39 10 -1 -13 -10 -8 -33
20 -18 20 -38 37 -44 37 -21 0 -15 16 12 30 20 11 25 21 25 51 0 41 12 29
-218 227 -34 29 -82 79 -107 111 -40 53 -45 65 -45 111 0 50 1 52 24 46 25 -6
46 19 23 27 -8 3 -5 10 8 20 26 20 15 30 -20 17 -35 -13 -51 -1 -60 46 -7 42
7 64 42 64 27 0 43 28 22 41 -18 11 -97 11 -125 -1z m306 -757 c0 -1 -20 5
-44 13 -34 12 -45 21 -49 42 -3 15 -9 36 -13 47 -4 11 18 -7 50 -40 31 -33 56
-61 56 -62z"/>
<path d="M2860 1920 c-6 -11 -8 -20 -6 -20 3 0 10 9 16 20 6 11 8 20 6 20 -3
0 -10 -9 -16 -20z"/>
<path d="M1625 1816 c-37 -15 -49 -26 -47 -38 3 -15 14 -18 60 -18 45 1 53 3
39 11 -18 10 -17 13 9 40 24 25 25 29 8 28 -10 -1 -42 -11 -69 -23z"/>
<path d="M2759 1783 c-13 -16 -12 -17 4 -4 9 7 17 15 17 17 0 8 -8 3 -21 -13z"/>
<path d="M2689 1713 l-34 -38 38 34 c20 19 37 36 37 38 0 8 -8 0 -41 -34z"/>
<path d="M2962 1679 c2 -6 8 -10 13 -10 5 0 11 4 13 10 2 6 -4 11 -13 11 -9 0
-15 -5 -13 -11z"/>
<path d="M2576 1661 c-3 -4 6 -6 19 -3 14 2 25 6 25 8 0 8 -39 4 -44 -5z"/>
<path d="M2937 1584 c-8 -8 1 -24 14 -24 5 0 9 7 9 15 0 15 -12 20 -23 9z"/>
<path d="M2936 1483 c-11 -11 -6 -23 9 -23 8 0 15 4 15 9 0 13 -16 22 -24 14z"/>
<path d="M740 1380 c-7 -17 -32 -45 -57 -62 -66 -48 -39 -77 39 -42 32 14 43
15 59 6 27 -17 31 -15 18 9 -11 21 -9 69 6 102 6 14 2 17 -23 17 -24 0 -32 -6
-42 -30z"/>
<path d="M3120 1076 c0 -9 88 -149 191 -302 l88 -132 53 10 c29 5 54 11 55 12
1 1 -17 52 -42 114 -24 61 -56 149 -71 196 -15 47 -35 88 -43 92 -22 9 -231
18 -231 10z"/>
</g>
</svg>
