<?xml version="1.0" standalone="no"?>
<!DOCTYPE svg PUBLIC "-//W3C//DTD SVG 20010904//EN"
 "http://www.w3.org/TR/2001/REC-SVG-20010904/DTD/svg10.dtd">
<svg version="1.0" xmlns="http://www.w3.org/2000/svg"
 width="400.000000pt" height="332.000000pt" viewBox="0 0 400.000000 332.000000"
 preserveAspectRatio="xMidYMid meet">

<g transform="translate(0.000000,332.000000) scale(0.100000,-0.100000)"
fill="#000000" stroke="none">
<path d="M925 2425 c-14 -13 -25 -32 -25 -42 0 -28 26 -60 55 -67 18 -5 25
-13 25 -31 0 -27 19 -75 31 -75 8 0 23 31 20 44 -4 19 22 35 48 30 18 -4 35 1
54 16 51 40 27 82 -48 84 -25 1 -45 5 -45 9 0 16 -50 57 -70 57 -11 0 -32 -11
-45 -25z"/>
<path d="M2873 2378 c-30 -15 -29 -38 1 -38 41 0 58 -10 45 -26 -9 -11 -4 -17
25 -29 29 -12 37 -21 34 -38 -4 -36 16 -33 35 6 21 43 16 86 -13 112 -23 21
-97 29 -127 13z"/>
<path d="M1110 2075 c0 -5 5 -17 10 -25 5 -8 10 -10 10 -5 0 6 -5 17 -10 25
-5 8 -10 11 -10 5z"/>
<path d="M1150 1995 c0 -5 5 -17 10 -25 5 -8 10 -10 10 -5 0 6 -5 17 -10 25
-5 8 -10 11 -10 5z"/>
<path d="M1180 1925 c0 -5 5 -17 10 -25 5 -8 10 -10 10 -5 0 6 -5 17 -10 25
-5 8 -10 11 -10 5z"/>
<path d="M1220 1836 c0 -2 8 -10 18 -17 15 -13 16 -12 3 4 -13 16 -21 21 -21
13z"/>
<path d="M1469 1743 c-13 -16 -12 -17 4 -4 9 7 17 15 17 17 0 8 -8 3 -21 -13z"/>
<path d="M1390 1695 c-14 -8 -20 -14 -14 -15 5 0 19 7 30 15 24 18 16 19 -16
0z"/>
<path d="M1241 1654 c0 -11 3 -14 6 -6 3 7 2 16 -1 19 -3 4 -6 -2 -5 -13z"/>
<path d="M1288 1653 c7 -3 16 -2 19 1 4 3 -2 6 -13 5 -11 0 -14 -3 -6 -6z"/>
<path d="M1910 1651 c0 -6 4 -13 10 -16 6 -3 7 1 4 9 -7 18 -14 21 -14 7z"/>
<path d="M2811 1584 c0 -11 3 -14 6 -6 3 7 2 16 -1 19 -3 4 -6 -2 -5 -13z"/>
<path d="M1950 1586 c0 -2 8 -10 18 -17 15 -13 16 -12 3 4 -13 16 -21 21 -21
13z"/>
<path d="M1996 1548 c7 -12 64 -40 73 -36 4 2 -12 12 -35 24 -24 11 -41 17
-38 12z"/>
<path d="M2801 1544 c0 -11 3 -14 6 -6 3 7 2 16 -1 19 -3 4 -6 -2 -5 -13z"/>
<path d="M2792 1500 c0 -14 2 -19 5 -12 2 6 2 18 0 25 -3 6 -5 1 -5 -13z"/>
<path d="M2098 1503 c6 -2 18 -2 25 0 6 3 1 5 -13 5 -14 0 -19 -2 -12 -5z"/>
<path d="M2223 1503 c9 -2 23 -2 30 0 6 3 -1 5 -18 5 -16 0 -22 -2 -12 -5z"/>
<path d="M2776 1434 c-4 -20 -5 -38 -3 -40 3 -3 8 11 11 32 4 20 5 38 3 40 -3
3 -8 -11 -11 -32z"/>
<path d="M2262 1400 c0 -19 2 -27 5 -17 2 9 2 25 0 35 -3 9 -5 1 -5 -18z"/>
<path d="M2761 1364 c0 -11 3 -14 6 -6 3 7 2 16 -1 19 -3 4 -6 -2 -5 -13z"/>
<path d="M1980 1356 c0 -3 9 -10 20 -16 11 -6 20 -8 20 -6 0 3 -9 10 -20 16
-11 6 -20 8 -20 6z"/>
<path d="M2270 1330 c0 -29 0 -29 -67 -33 l-68 -3 73 -2 72 -2 0 35 c0 19 -2
35 -5 35 -3 0 -5 -13 -5 -30z"/>
<path d="M2751 1324 c0 -11 3 -14 6 -6 3 7 2 16 -1 19 -3 4 -6 -2 -5 -13z"/>
<path d="M2098 1303 c6 -2 18 -2 25 0 6 3 1 5 -13 5 -14 0 -19 -2 -12 -5z"/>
<path d="M2741 1284 c0 -11 3 -14 6 -6 3 7 2 16 -1 19 -3 4 -6 -2 -5 -13z"/>
<path d="M1834 1283 c-158 -3 -162 -4 -168 -26 -20 -76 11 -148 78 -178 48
-22 104 -23 265 -8 62 6 115 8 117 6 2 -2 -23 -67 -57 -145 -33 -78 -58 -146
-55 -151 7 -10 105 -46 110 -40 2 2 27 49 56 104 30 55 62 114 72 130 l19 30
-5 -70 c-3 -38 -8 -107 -11 -153 l-6 -83 63 3 63 3 22 135 c26 161 38 299 29
334 -3 14 -15 30 -26 36 -20 11 -387 82 -399 78 -3 -1 -79 -4 -167 -5z"/>
<path d="M2731 1244 c0 -11 3 -14 6 -6 3 7 2 16 -1 19 -3 4 -6 -2 -5 -13z"/>
<path d="M2711 1164 c-7 -30 -11 -57 -8 -60 2 -2 9 21 16 52 7 30 11 57 8 60
-2 2 -9 -21 -16 -52z"/>
<path d="M2691 1074 c0 -11 3 -14 6 -6 3 7 2 16 -1 19 -3 4 -6 -2 -5 -13z"/>
<path d="M2681 1034 c0 -11 3 -14 6 -6 3 7 2 16 -1 19 -3 4 -6 -2 -5 -13z"/>
<path d="M480 841 l-35 -30 25 -24 c14 -14 54 -62 89 -106 35 -45 68 -81 73
-81 10 0 12 -6 -17 75 -13 39 -25 79 -25 91 0 22 -54 104 -68 104 -4 0 -23
-13 -42 -29z"/>
<path d="M1320 587 l0 -52 141 -3 c159 -3 174 6 74 42 -33 13 -78 32 -100 44
-22 12 -57 22 -77 22 l-38 0 0 -53z"/>
</g>
</svg>
