<?xml version="1.0" standalone="no"?>
<!DOCTYPE svg PUBLIC "-//W3C//DTD SVG 20010904//EN"
 "http://www.w3.org/TR/2001/REC-SVG-20010904/DTD/svg10.dtd">
<svg version="1.0" xmlns="http://www.w3.org/2000/svg"
 width="400.000000pt" height="298.000000pt" viewBox="0 0 400.000000 298.000000"
 preserveAspectRatio="xMidYMid meet">

<g transform="translate(0.000000,298.000000) scale(0.100000,-0.100000)"
fill="#000000" stroke="none">
<path d="M1436 1944 c-20 -22 -36 -43 -36 -49 0 -5 13 -37 30 -70 l29 -60 1
41 c0 52 17 70 42 47 17 -16 19 -15 33 5 9 12 29 22 48 24 40 4 46 27 15 62
-17 20 -36 28 -75 33 -50 5 -53 5 -87 -33z"/>
<path d="M2573 1960 c-40 -16 -61 -71 -79 -203 l-6 -48 -67 6 c-36 4 -99 13
-140 22 -40 8 -75 12 -78 10 -2 -3 -5 -22 -6 -42 -2 -37 -1 -39 79 -84 44 -26
107 -55 140 -66 32 -11 61 -21 63 -22 9 -6 -94 -104 -166 -160 -40 -31 -73
-59 -73 -63 0 -3 13 -19 29 -34 l28 -27 91 36 c49 20 97 44 104 53 14 16 21
38 48 140 9 35 15 42 35 42 14 0 25 -1 25 -2 0 -2 -7 -39 -15 -83 -8 -44 -14
-115 -15 -157 l0 -77 -52 -3 -51 -3 -73 -160 c-82 -178 -194 -456 -249 -613
l-36 -103 23 -20 c19 -16 20 -18 4 -12 -13 4 -17 3 -12 -5 4 -6 2 -21 -4 -32
-9 -17 -8 -20 9 -20 24 0 36 16 19 23 -10 4 -10 6 0 6 6 1 12 8 12 17 0 11 8
15 27 12 23 -3 35 7 85 72 80 103 237 338 288 434 l43 78 31 -83 c37 -100 81
-151 146 -170 54 -15 355 -18 370 -3 5 5 12 23 16 40 l6 30 -142 53 c-93 35
-146 61 -155 75 -11 17 -55 240 -55 277 0 5 7 9 15 9 12 0 15 17 15 89 0 118
-23 242 -69 379 -36 106 -37 112 -18 112 17 0 19 5 14 36 -3 20 -17 50 -30 68
-15 18 -28 53 -31 81 -5 32 -15 58 -29 72 -25 25 -82 37 -114 23z m22 -92 c17
-9 36 -13 42 -11 20 7 29 -28 10 -39 -12 -6 -17 -22 -17 -53 0 -25 -4 -45 -10
-45 -5 0 -10 7 -10 14 0 12 -6 13 -30 4 -43 -15 -60 3 -60 62 0 26 3 62 6 79
6 28 8 30 23 18 9 -8 30 -21 46 -29z"/>
<path d="M1470 1687 c0 -38 18 -130 65 -327 24 -102 49 -228 55 -280 15 -120
15 -120 40 -120 18 0 20 5 15 38 -21 152 -23 197 -9 205 16 9 18 45 5 79 -32
81 -93 287 -96 326 -6 84 -14 102 -46 102 -24 0 -29 -4 -29 -23z"/>
<path d="M1570 1600 c6 -11 13 -20 16 -20 2 0 0 9 -6 20 -6 11 -13 20 -16 20
-2 0 0 -9 6 -20z"/>
<path d="M1630 1506 c0 -2 8 -10 18 -17 15 -13 16 -12 3 4 -13 16 -21 21 -21
13z"/>
<path d="M1670 1457 c0 -2 15 -16 33 -33 l32 -29 -29 33 c-28 30 -36 37 -36
29z"/>
<path d="M1770 1355 c19 -19 36 -35 39 -35 3 0 -10 16 -29 35 -19 19 -36 35
-39 35 -3 0 10 -16 29 -35z"/>
<path d="M1486 1333 c-11 -11 -6 -23 9 -23 8 0 15 4 15 9 0 13 -16 22 -24 14z"/>
<path d="M1875 1300 c3 -5 8 -10 11 -10 2 0 4 5 4 10 0 6 -5 10 -11 10 -5 0
-7 -4 -4 -10z"/>
<path d="M1737 1259 c7 -7 15 -10 18 -7 3 3 -2 9 -12 12 -14 6 -15 5 -6 -5z"/>
<path d="M1502 1218 c6 -18 28 -21 28 -4 0 9 -7 16 -16 16 -9 0 -14 -5 -12
-12z"/>
<path d="M1505 1121 c-7 -12 12 -24 25 -16 11 7 4 25 -10 25 -5 0 -11 -4 -15
-9z"/>
</g>
</svg>
