<?xml version="1.0" standalone="no"?>
<!DOCTYPE svg PUBLIC "-//W3C//DTD SVG 20010904//EN"
 "http://www.w3.org/TR/2001/REC-SVG-20010904/DTD/svg10.dtd">
<svg version="1.0" xmlns="http://www.w3.org/2000/svg"
 width="400.000000pt" height="296.000000pt" viewBox="0 0 400.000000 296.000000"
 preserveAspectRatio="xMidYMid meet">

<g transform="translate(0.000000,296.000000) scale(0.100000,-0.100000)"
fill="#000000" stroke="none">
<path d="M2662 2077 c-13 -14 -18 -27 -13 -35 4 -8 7 -24 5 -38 -3 -33 13 -40
34 -14 21 26 49 18 63 -17 7 -20 12 -23 23 -14 7 6 21 9 30 5 18 -7 22 -39 6
-49 -17 -11 -11 -32 13 -40 12 -4 37 -9 55 -11 39 -4 48 13 51 94 1 48 -2 57
-32 87 -25 25 -47 36 -92 44 -89 17 -119 14 -143 -12z"/>
<path d="M1220 1970 c-19 -11 -43 -19 -52 -20 -22 0 -22 -4 -2 -35 10 -15 14
-37 12 -55 -3 -16 -1 -30 4 -30 4 0 8 6 8 14 0 9 12 13 38 12 l37 -1 3 59 c2
32 -1 62 -5 67 -4 4 -24 -1 -43 -11z"/>
<path d="M1598 1607 c-65 -28 -63 -47 5 -47 36 0 47 3 37 10 -12 7 -11 13 10
34 29 32 14 32 -52 3z"/>
<path d="M1720 1506 c-67 -49 -163 -157 -199 -226 l-32 -60 -94 85 -94 85
-125 0 c-141 0 -136 3 -136 -92 l0 -48 -49 0 c-46 0 -50 -2 -61 -32 -6 -18
-49 -142 -96 -276 -46 -134 -92 -263 -103 -288 -11 -24 -18 -51 -15 -59 3 -7
1 -23 -5 -34 -19 -34 7 -35 38 -2 16 17 35 29 43 26 18 -7 212 290 362 557
l26 46 67 -45 c37 -25 94 -58 126 -75 52 -26 59 -32 54 -54 -3 -15 1 -28 11
-33 12 -7 9 -23 -21 -112 -39 -116 -51 -176 -36 -185 28 -17 171 167 215 275
21 51 26 56 56 59 30 3 36 -1 51 -32 13 -29 25 -38 69 -51 47 -14 196 -34 255
-35 20 0 19 -5 -23 -97 -24 -54 -44 -110 -44 -125 0 -37 43 -70 89 -66 31 3
39 10 70 63 l36 60 11 -108 c6 -60 16 -113 22 -119 13 -13 106 7 126 27 17 18
46 203 46 299 0 42 3 76 8 76 4 0 20 -23 37 -51 16 -27 48 -70 70 -95 35 -41
43 -45 68 -39 36 9 34 21 -23 172 -22 59 -40 110 -40 114 0 4 39 28 88 54 48
26 113 65 144 86 l57 39 70 -125 c122 -215 302 -487 318 -481 8 3 24 6 36 6
47 0 49 12 14 96 -19 43 -62 164 -97 267 -60 176 -65 188 -86 183 -21 -6 -22
-4 -12 27 9 29 7 38 -16 71 -14 22 -26 45 -26 52 0 11 -26 14 -125 14 l-125 0
-6 40 c-6 38 -9 40 -40 40 -28 0 -49 -13 -122 -78 -109 -99 -222 -218 -222
-236 0 -10 -13 -9 -67 4 -38 9 -110 23 -160 30 -51 7 -93 16 -93 19 0 4 19 12
43 18 23 6 68 29 100 50 48 31 57 42 55 63 -3 29 -19 30 -111 9 -86 -20 -99
-9 -170 131 -56 112 -57 114 -51 65 3 -27 22 -92 41 -145 80 -217 80 -220 8
-220 l-45 0 0 38 c0 50 -15 143 -47 290 -30 141 -36 145 -113 88z m-93 -353
c-14 -62 -22 -71 -36 -44 -10 17 -7 28 15 61 15 22 28 39 30 38 1 -2 -3 -26
-9 -55z"/>
<path d="M825 1230 c-3 -11 -25 -35 -47 -55 -32 -27 -39 -38 -30 -47 9 -9 21
-7 52 7 33 15 46 16 60 7 17 -11 18 -9 8 19 -8 22 -7 38 1 55 15 33 15 34 -13
34 -16 0 -27 -7 -31 -20z"/>
</g>
</svg>
